<?xml version="1.0" encoding="UTF-8"?>
<svg xmlns="http://www.w3.org/2000/svg" xmlns:xlink="http://www.w3.org/1999/xlink" width="137px" height="137px" viewBox="0 0 137 137" version="1.1">
<g id="surface1">
<path style="fill:none;stroke-width:2.814259;stroke-linecap:butt;stroke-linejoin:miter;stroke:rgb(100%,100%,100%);stroke-opacity:1;stroke-miterlimit:4;" d="M 45.02167 13.152344 L 454.97833 13.152344 L 454.97833 47.863281 L 486.869868 24.410156 L 486.869868 112.589844 L 454.97833 89.136719 L 454.97833 123.847656 L 45.02167 123.847656 L 45.02167 89.136719 L 13.130132 112.589844 L 13.130132 24.410156 L 45.02167 47.863281 Z M 45.02167 13.152344 " transform="matrix(0.274,0,0,1,0,0)"/>
<path style="fill:none;stroke-width:9.380863;stroke-linecap:butt;stroke-linejoin:miter;stroke:rgb(100%,100%,100%);stroke-opacity:1;stroke-miterlimit:4;" d="M 87.249088 38.480469 L 87.249088 30.039062 L 81.617815 24.410156 L 69.414348 24.410156 L 63.783075 30.039062 L 63.783075 50.675781 L 69.414348 56.304688 L 81.617815 56.304688 L 87.249088 61.933594 L 87.249088 92.890625 L 81.617815 98.519531 L 69.414348 98.519531 L 63.783075 92.890625 L 63.783075 80.695312 M 103.187728 30.039062 L 108.819001 24.410156 L 120.081547 24.410156 L 125.698563 30.039062 L 125.698563 79.757812 L 120.081547 85.386719 L 108.819001 85.386719 L 103.187728 79.757812 Z M 139.769617 19.71875 L 139.769617 71.3125 L 145.40089 76.941406 L 154.781592 76.941406 L 160.412865 71.3125 L 160.412865 19.71875 M 168.852646 24.410156 L 195.127167 24.410156 M 181.982778 24.410156 L 181.982778 76.003906 M 206.375456 19.71875 L 206.375456 73.191406 M 225.136861 19.71875 L 225.136861 72.253906 M 206.375456 45.984375 L 225.136861 45.984375 M 288.934193 35.667969 L 288.934193 30.039062 L 283.30292 24.410156 L 273.922217 24.410156 L 268.290944 30.039062 L 268.290944 40.355469 L 273.922217 47.863281 L 283.30292 47.863281 L 288.934193 53.492188 L 288.934193 65.6875 L 283.30292 71.3125 L 273.922217 71.3125 L 268.290944 65.6875 L 268.290944 59.121094 M 303.946168 19.71875 L 303.946168 78.820312 M 320.82573 19.71875 L 320.82573 80.695312 M 303.946168 47.863281 L 320.82573 47.863281 M 337.705292 30.039062 L 343.336565 24.410156 L 356.466697 24.410156 L 362.09797 30.039062 L 362.09797 75.066406 L 356.466697 80.695312 L 343.336565 80.695312 L 337.705292 75.066406 Z M 377.109945 91.953125 L 377.109945 24.410156 L 393.989507 24.410156 L 399.62078 30.039062 L 399.62078 51.613281 L 393.989507 57.242188 L 377.109945 57.242188 M 399.62078 99.457031 L 393.062842 57.242188 M 442.774863 24.410156 L 417.45552 24.410156 L 417.45552 105.085938 L 442.774863 105.085938 M 439.966355 59.121094 L 417.45552 59.121094 M 174.483919 83.507812 L 174.483919 112.589844 L 206.375456 112.589844 M 216.69708 79.757812 L 216.69708 117.28125 M 236.399407 117.28125 L 236.399407 83.507812 L 239.207915 83.507812 L 263.600593 112.589844 L 264.541515 112.589844 L 264.541515 79.757812 M 315.194457 89.136719 L 285.184763 89.136719 L 285.184763 112.589844 L 316.135379 112.589844 " transform="matrix(0.274,0,0,1,0,0)"/>
<path style="fill:none;stroke-width:5.628518;stroke-linecap:butt;stroke-linejoin:miter;stroke:rgb(100%,100%,100%);stroke-opacity:1;stroke-miterlimit:4;" d="M 305.813755 99.457031 L 285.184763 99.457031 " transform="matrix(0.274,0,0,1,0,0)"/>
</g>
</svg>
