<?xml version="1.0" encoding="UTF-8"?>
<!-- Generated by Pixelmator Pro 3.6.12 -->
<svg width="381" height="381" viewBox="0 0 381 381" xmlns="http://www.w3.org/2000/svg">
    <path id="path5" fill="none" stroke="#ffffff" stroke-width="19.1248" d="M 371.834015 190.453003 C 371.834015 290.472992 290.975006 371.437012 190.929001 371.437012 C 90.878998 371.437012 9.562 290.472015 9.562 190.453003 C 9.563 89.959015 90.878998 8.985992 190.929001 8.985992 C 290.975006 8.985992 371.834015 89.959015 371.834015 190.453003 Z"/>
    <path id="path9" fill="#ffffff" stroke="none" d="M 127.428001 174.255005 C 126.056999 172.35701 123.315002 171.873001 119.657997 171.873001 C 105.956001 171.873001 102.300003 190.453003 102.300003 198.548004 C 102.300003 207.126007 104.127998 214.737 113.264 214.737 C 121.486 214.737 125.141998 206.641998 126.971001 201.878998 L 157.121994 201.878998 C 151.641998 226.647003 136.563995 238.556 112.807999 238.556 C 77.629997 238.556 70.778999 215.221008 70.778999 199.02301 C 70.778999 169.492004 89.051003 147.589005 120.572998 147.589005 C 143.416 147.589005 160.779007 158.540009 160.322006 182.833008 L 129.714005 182.833008 C 130.169998 178.544006 129.255997 176.162003 127.428001 174.255005"/>
    <path id="path11" fill="#ffffff" stroke="none" d="M 212.401001 212.363998 L 207.830994 236.174011 L 194.580002 236.649002 C 188.186996 237.124008 179.050995 237.60701 174.024002 234.742004 C 168.544006 231.411011 166.259003 224.740005 166.259003 218.553009 C 166.259003 214.264008 167.173004 210.932999 168.087006 207.126999 L 175.395004 172.832001 L 161.688004 172.832001 L 165.800995 152.828003 L 179.507996 152.828003 L 184.531006 127.585999 L 215.597 127.585999 L 210.115997 152.828003 L 226.559998 152.828003 L 222.453003 172.832001 L 206.917007 172.832001 L 201.436005 199.981003 C 201.436005 201.404999 200.522003 205.219009 200.522003 208.076004 C 200.522003 210.932999 203.718002 212.365005 205.546005 212.365005 C 210.572998 212.363998 213.315002 212.363998 212.401001 212.363998"/>
    <path id="path13" fill="#ffffff" stroke="none" d="M 257.626007 216.645004 C 253.973007 217.12001 247.574005 216.645004 247.574005 210.457001 C 247.574005 204.261002 253.514999 201.878998 258.997009 200.930008 C 264.480988 199.981003 269.04599 199.02301 274.072998 196.166 C 272.246002 209.025009 264.938995 215.221008 257.626007 216.645004 M 270.416992 146.630997 C 249.858994 146.630997 235.242996 154.251007 227.931 173.779999 L 258.083008 173.779999 C 261.282013 169.490997 264.937988 167.118011 271.330994 167.118011 C 275.901001 166.63501 282.751007 167.118011 281.837006 172.831009 C 280.466003 179.018997 265.846985 181.400009 257.169006 181.875 C 232.957993 183.781998 216.511002 191.876999 216.511002 214.737 C 216.511002 231.410004 229.302002 237.606003 243.921005 237.606003 C 253.059006 237.606003 264.024994 234.266006 269.502991 227.121002 L 268.131989 236.174011 L 298.286987 236.174011 C 298.286987 236.174011 311.075012 183.307999 311.075012 169.975006 C 311.075989 149.013 285.493988 146.630997 270.416992 146.630997 Z"/>
    <path id="path15" fill="none" stroke="#ffffff" stroke-width="2" d="M 318.845001 239.505005 C 314.274994 239.505005 310.161011 236.174011 310.161011 230.936005 C 310.161011 226.171997 314.273987 222.367004 318.845001 222.367004 C 323.408997 222.367004 327.52301 226.173004 327.52301 230.936005 C 327.52301 236.174011 323.410004 239.505005 318.845001 239.505005"/>
    <path id="path19" fill="#ffffff" stroke="none" d="M 321.582001 236.174011 L 318.846008 231.88501 L 317.018005 231.88501 L 317.018005 236.174011 L 315.647003 236.174011 L 315.647003 226.171997 L 319.303009 226.171997 C 321.582001 226.171997 322.953003 227.121002 322.953003 229.028 C 322.953003 230.460999 321.582001 231.410004 320.210999 231.884003 L 322.953003 236.173004 L 321.582001 236.173004"/>
</svg>
