<?xml version="1.0" encoding="UTF-8"?>
<!-- Generated by Pixelmator Pro 3.6.12 -->
<svg width="3550" height="930" viewBox="0 0 3550 930" xmlns="http://www.w3.org/2000/svg">
    <g id="Artboard1">
        <path id="Path" fill="none" stroke="none" d="M 0 0 L 3549.994873 0 L 3549.994873 930.002502 L 0 930.002502 Z"/>
        <g id="Trim">
            <path id="path1" fill="#ffffff" fill-rule="evenodd" stroke="none" d="M 2518.938232 131.5 L 223.940353 115.499939 L 223.940353 111.499939 L 2524.938232 105.499878 L 2518.938232 131.5 Z M 1709.938965 362.50061 C 1722.938843 340.500549 1738.938843 320.500488 1756.938843 302.500488 L 2337.938232 306.500488 C 2345.938232 322.500488 2352.938232 339.500549 2357.938232 358.50061 L 2097.938477 360.50061 C 2084.938477 350.50061 2066.938477 344.50061 2042.938599 344.50061 C 2021.938599 344.50061 2002.938599 350.50061 1986.938599 360.50061 L 1709.938965 362.50061 Z M 1693.938965 390.500732 L 160.940399 376.500671 L 160.940399 372.500671 L 1709.938965 362.50061 C 1703.938965 371.500671 1698.938965 381.500671 1693.938965 390.500732 Z M 1779.938843 280.500427 C 1808.938843 254.500305 1843.938843 233.500244 1881.938721 216.500244 L 203.940369 201.500183 L 203.940369 197.500183 L 1953.938721 193.500183 C 1988.938599 185.500122 2025.938599 181.500122 2064.938477 181.500122 C 2104.938477 181.500122 2141.938477 185.500122 2176.938477 193.500183 L 2504.938232 192.500122 L 2497.938232 222.500244 L 2854.937744 224.500244 L 2842.937744 276.500366 L 2393.938232 278.500366 L 2405.938232 221.500244 L 2249.938477 220.500244 C 2277.938477 234.500244 2301.938232 254.500305 2319.938232 278.500366 L 1779.938843 280.500427 Z M 2504.938232 192.500122 L 2518.938232 131.5 L 2749.937988 133.5 L 2736.937988 192.500122 L 2504.938232 192.500122 Z M 1718.938965 742.501709 L 2233.938477 747.501709 C 2208.938477 768.50177 2167.938477 791.501831 2135.938477 804.501892 C 2084.938477 825.501953 2044.938599 832.501953 1890.938721 830.501953 L 53.94051 807.501892 L 53.94051 803.501892 L 1802.938843 799.501831 C 1770.938843 785.501831 1741.938843 766.50177 1718.938965 742.501709 Z M 1658.938965 627.501343 C 1654.938965 609.501343 1652.938965 590.501282 1652.938965 569.501221 L 1902.938721 572.501221 C 1903.938721 591.501282 1906.938721 609.501343 1913.938721 624.501343 L 1658.938965 627.501343 Z M 1652.938965 569.501221 L 117.940445 552.50116 L 117.940445 548.50116 L 1653.938965 537.501099 C 1652.938965 547.50116 1652.938965 556.501221 1652.938965 566.501221 L 1652.938965 569.501221 Z M 1718.938965 742.501709 L 73.940491 726.501648 L 73.940491 722.501648 L 1696.938965 716.501648 C 1702.938965 726.501648 1710.938965 734.501709 1718.938965 742.501709 Z M 1653.938965 537.501099 C 1654.938965 516.501099 1657.938965 495.501007 1662.938965 475.500946 L 1913.938721 478.500946 C 1908.938721 497.501007 1905.938721 517.501099 1903.938721 536.501099 L 1653.938965 537.501099 Z M 1696.938965 716.501648 C 1683.938965 698.501587 1673.938965 678.501526 1665.938965 655.501465 L 1938.938721 656.501465 C 1951.938721 666.501465 1968.938721 671.501465 1990.938599 671.501465 C 2008.938599 671.501465 2025.938599 666.501465 2040.938599 657.501465 L 2307.938232 658.501465 C 2296.938232 678.501526 2283.938477 697.501587 2268.938477 714.501648 L 1696.938965 716.501648 Z M 1662.938965 475.500946 L 140.94043 462.500916 L 140.94043 458.500916 L 1669.938965 449.500885 C 1667.938965 457.500885 1664.938965 466.500916 1662.938965 475.500946 Z M 1756.938843 302.500488 L 181.940384 290.500427 L 181.940384 286.500427 L 1779.938843 280.500427 C 1771.938843 287.500427 1763.938843 294.500427 1756.938843 302.500488 Z M 2524.938232 105.499878 L 2540.938232 33.499695 L 2771.937988 33.499695 L 2755.937988 104.499878 L 2524.938232 105.499878 Z M 1669.938965 449.500885 C 1675.938965 428.500824 1683.938965 409.500793 1693.938965 390.500732 L 1952.938721 393.500732 C 1940.938721 409.500793 1930.938721 427.500824 1923.938721 447.500885 L 1669.938965 449.500885 Z M 1665.938965 655.501465 L 90.940475 649.501465 L 90.940475 645.501465 L 1658.938965 627.501343 C 1660.938965 637.501404 1662.938965 646.501465 1665.938965 655.501465 Z M 2834.937744 310.500488 L 2823.937744 359.50061 L 2700.937988 358.50061 L 2656.937988 562.501221 C 2642.937988 628.501343 2690.937988 650.501465 2747.937988 646.501465 L 2712.937988 816.501892 L 2628.937988 816.501892 C 2431.938232 816.501892 2376.938232 759.50177 2406.938232 626.501343 L 2467.938232 357.50061 L 2377.938232 357.50061 L 2387.938232 306.500488 L 2834.937744 310.500488 Z M 3487.937256 447.500885 L 3427.937256 719.501648 C 3416.937256 771.50177 3423.937256 798.501831 3435.937256 816.501892 L 3435.937256 820.501953 L 3180.9375 820.501953 C 3176.9375 810.501892 3173.9375 797.501831 3172.9375 776.501831 L 3166.9375 776.501831 C 3117.9375 814.501892 3053.9375 836.501953 2983.937744 836.501953 C 2850.937744 836.501953 2769.937988 767.50177 2769.937988 662.501465 C 2769.937988 524.501099 2872.937744 454.500885 3065.9375 437.500854 C 3225.9375 423.500793 3276.9375 407.500732 3276.9375 367.500671 C 3276.9375 346.50061 3252.9375 326.500549 3199.9375 326.500549 C 3136.9375 326.500549 3112.9375 364.50061 3100.9375 395.500732 L 2850.937744 395.500732 C 2877.937744 271.500366 2979.937744 185.500122 3205.9375 185.500122 C 3279.9375 185.500122 3355.937256 193.500183 3413.937256 227.500244 C 3477.937256 264.500366 3512.937256 332.500549 3487.937256 447.500885 Z M 3222.9375 565.501221 L 3230.9375 528.501099 C 3117.9375 542.501099 3014.937744 573.501221 3014.937744 639.501404 C 3014.937744 673.501526 3042.937744 686.501526 3075.9375 686.501526 C 3149.9375 686.501526 3208.9375 629.501343 3222.9375 565.501221 Z M 2094.938477 571.501221 L 2337.938232 571.501221 C 2334.938232 588.501282 2329.938232 604.501343 2324.938232 619.501343 L 2073.938477 622.501343 C 2082.938477 608.501343 2089.938477 591.501282 2094.938477 571.501221 Z M 2365.938232 432.500824 L 2127.938477 432.500824 C 2126.938477 419.500793 2124.938477 406.500732 2120.938477 395.500732 L 2363.938232 397.500732 C 2364.938232 408.500732 2365.938232 420.500793 2365.938232 432.500824 Z"/>
        </g>
    </g>
</svg>
