<?xml version="1.0" encoding="UTF-8"?>
<!-- Generated by Pixelmator Pro 3.6.12 -->
<svg width="273" height="212" viewBox="0 0 273 212" xmlns="http://www.w3.org/2000/svg">
    <path id="Path" fill="#ffffff" stroke="none" d="M 243.600006 3.5 L 243.100006 3.200012 L 243.600006 3.5 Z M 262.899994 210.100006 L 189.399994 210.100006 C 183.300003 210.100006 180.300003 206.700012 180.600006 200.399994 C 181.899994 178.299988 184.899994 156.300003 187.5 134.300003 C 189.800003 114.5 191.800003 94.600006 191.199997 74.199997 L 189.100006 78.5 C 169.5 120.699997 151.5 163.600006 134.100006 206.700012 C 132.699997 210.200012 131.100006 211.5 127.300003 211.399994 C 119.5 211.200012 111.699997 211.600006 103.800003 211.899994 C 99.5 212.100006 98 210.200012 97.699997 206 C 95.899994 173.299988 95 140.5 91.800003 107.800003 L 87.600006 70.800003 C 85.100006 73.699997 84.800003 76.199997 84.100006 78.300003 L 43 195.399994 C 41.099998 200.799988 41.199997 205.399994 47.099998 209.899994 L 5.900002 209.899994 C -0.299999 209.899994 -1.599998 208.200012 0.400002 202.399994 L 17.699997 153 C 24.800003 132.600006 33.300003 112.800003 39.900002 92.300003 C 40.400002 90.600006 41.5 89.100006 42.400002 87.5 L 40.199997 88.600006 L 42.400002 87.5 C 48.300003 72.899994 53.5 58.100006 59 43.399994 C 62.099998 35.200012 64.900002 26.899994 68.399994 18.899994 C 71.300003 12.399994 71.600006 6.799988 64.5 1.799988 C 70.899994 -0.100006 76.5 -0.200012 82 -0.200012 C 92.5 -0.100006 102.899994 1.299988 113.399994 0.700012 C 116.699997 0.5 118.199997 3.299988 120.5 4.799988 C 122.100006 5 123.399994 5.5 124.5 6.100006 C 123.399994 5.399994 122.100006 5 120.5 4.799988 C 124.399994 12.700012 123 21.399994 123.699997 29.700012 L 128.699997 93.300003 C 129.600006 103.199997 131 113.100006 133.100006 123.600006 C 134.899994 121.600006 136.100006 120.199997 136.899994 118.300003 L 181.300003 13.100006 C 183.5 8 178.800003 5.899994 175.800003 2.799988 C 179.300003 1.200012 182.899994 1.100006 186.100006 1 C 202.399994 0.299988 218.700012 0.700012 234.899994 1.600006 C 236.299988 1.700012 237.399994 2.100006 238.5 3 L 238.5 3 C 241.899994 6.600006 241.399994 10.899994 241 15.399994 L 229.799988 177.899994 C 229.600006 181 230.399994 182.100006 233.5 181.899994 C 236.5 181.700012 239.600006 182.299988 242.5 181.799988 C 249.200012 180.700012 252.799988 183.799988 255.799988 189.299988 C 260 197 264.399994 204.799988 272.799988 209.799988 L 262.899994 210.100006 Z M 125.899994 7.200012 L 125.899994 7.200012 Z"/>
</svg>
