<?xml version="1.0" encoding="UTF-8"?>
<!-- Generated by Pixelmator Pro 3.6.5 -->
<svg width="560" height="560" viewBox="0 0 560 560" xmlns="http://www.w3.org/2000/svg">
    <g id="Group-copy">
        <path id="Path" fill="#000000" fill-rule="evenodd" stroke="none" d="M 112.330338 374.463684 L 113.560272 378.056824 L 115.607216 381.122864 L 118.172516 384.100983 L 121.141953 386.657623 L 124.313431 389.222839 L 127.906616 391.260986 L 131.895111 393.316833 L 139.995148 395.978577 L 147.980957 397.823669 L 155.861343 398.342194 L 157.600845 398.034424 L 159.13826 397.832275 L 162.107666 397.322876 L 162.107666 339.331177 L 178.088074 339.331177 L 199.814087 339.331177 L 279.926971 339.331177 L 282.290192 339.331177 L 362.921448 339.331177 L 385.973999 339.331177 L 398.264618 339.331177 L 398.264618 397.823669 L 401.234009 398.543823 L 404.519714 398.842468 L 405.43335 398.842468 L 408.200714 398.842468 L 412.303467 398.333069 L 420.280487 396.795776 L 428.380463 393.712006 L 432.474426 391.972534 L 435.95343 389.609467 L 439.230286 387.158447 L 442.208527 384.593201 L 444.773834 381.614563 L 446.803192 378.548523 L 448.041962 374.964478 L 448.75351 371.485535 L 466.38559 207.060364 L 450.818054 62.191315 L 449.491547 55.54068 L 447.752014 49.496521 L 445.494232 43.85614 L 442.515991 38.619995 L 438.729523 33.709412 L 433.915222 29.395569 L 428.380463 25.600281 L 421.826691 22.332092 L 413.313751 18.528198 L 405.43335 15.769409 L 404.519714 15.462158 L 395.69931 12.800415 L 386.887634 10.235168 L 385.973999 10.03302 L 368.965729 6.65918 L 362.921448 5.833435 L 351.14035 4.093994 L 333.315033 2.354492 L 315.384308 1.335693 L 282.290192 0.096497 L 279.93576 0 L 244.188477 1.326599 L 226.257736 2.345947 L 208.625702 4.085388 L 199.822861 5.420532 L 190.809158 6.650635 L 181.997513 8.187927 L 178.105667 9.005127 L 173.185898 10.235168 L 164.690552 12.800415 L 157.609619 14.952759 L 155.870132 15.462158 L 147.049728 18.536804 L 138.448944 22.341187 L 131.895111 25.609436 L 126.369202 29.404175 L 121.651482 33.718018 L 117.856255 38.62915 L 114.781418 43.865234 L 112.321526 49.505096 L 110.77533 55.549255 L 109.554176 62.19989 L 93.986679 206.752563 L 111.504501 370.975616 L 112.330338 374.463684 Z M 380.5271 279.907776 L 379.420166 283.18454 L 377.768555 286.048462 L 375.61615 288.605103 L 373.050842 290.757446 L 369.984802 292.400391 L 366.699097 293.428314 L 362.90387 293.832092 L 359.424866 293.428314 L 356.033813 292.400391 L 353.07312 290.757446 L 350.200378 288.605103 L 348.047974 286.048462 L 346.41394 283.18454 L 345.588104 279.907776 L 345.078552 276.323212 L 345.588104 272.738647 L 346.41394 269.55838 L 348.047974 266.387238 L 350.200378 263.821991 L 353.07312 261.669647 L 356.033813 260.044403 L 359.424866 259.121582 L 362.90387 258.603607 L 366.699097 259.121582 L 369.984802 260.044403 L 373.050842 261.669647 L 375.61615 263.821991 L 377.768555 266.387238 L 379.420166 269.55838 L 380.5271 272.738647 L 380.834625 276.323212 L 380.5271 279.907776 Z M 422.749115 279.907776 L 421.730042 283.18454 L 420.08725 286.048462 L 417.934814 288.605103 L 415.16745 290.757446 L 412.408905 292.400391 L 408.833252 293.428314 L 405.442139 293.832092 L 405.240112 293.832092 L 401.761108 293.428314 L 398.493042 292.400391 L 395.400574 290.757446 L 392.852844 288.605103 L 390.480835 286.048462 L 388.750153 283.18454 L 387.924316 279.907776 L 387.616821 276.323212 L 387.924316 272.738647 L 388.750153 269.55838 L 390.480835 266.387238 L 392.852844 263.821991 L 395.400574 261.669647 L 398.493042 260.044403 L 401.761108 259.121582 L 405.240112 258.603607 L 405.442139 258.603607 L 408.833252 259.121582 L 412.408905 260.044403 L 415.16745 261.669647 L 417.934814 263.821991 L 420.08725 266.387238 L 421.730042 269.55838 L 422.749115 272.738647 L 423.15329 276.323212 L 422.749115 279.907776 Z M 334.22876 67.426849 L 334.536194 65.274506 L 335.370819 62.920013 L 336.591949 60.759094 L 338.331421 58.60672 L 339.868866 56.963776 L 341.828003 55.54068 L 343.86618 54.609283 L 345.71109 54.310608 L 362.921448 54.310608 L 385.973999 54.310608 L 405.442139 54.310608 L 410.159851 54.310608 L 413.533417 54.820007 L 415.580383 55.549255 L 417.732727 56.673706 L 420.096008 58.615326 L 421.940918 61.066345 L 423.364075 64.044983 L 424.084473 67.848846 L 437.306366 201.02478 L 437.71048 205.531616 L 436.99884 208.914032 L 435.566833 211.27713 L 433.721924 212.920074 L 431.56958 213.842346 L 429.302948 214.351746 L 425.525299 214.553894 L 405.442139 214.553894 L 385.973999 214.553894 L 362.921448 214.553894 L 346.422699 214.553894 L 343.655334 213.631622 L 341.098816 211.997253 L 339.148468 210.354828 L 337.611084 208.50116 L 335.36203 204.407196 L 334.219971 201.02478 L 334.219971 67.426849 Z M 244.487183 41.721436 L 282.290192 41.721436 L 320.198669 41.721436 L 320.198669 299.578125 L 282.290192 299.578125 L 244.487183 299.578125 L 244.487183 41.721436 Z M 174.828751 279.697052 L 173.994141 282.973816 L 172.263458 286.048462 L 170.225281 288.605103 L 167.545776 290.757446 L 164.479691 292.400391 L 161.299423 293.428314 L 157.723831 293.832092 L 157.609619 293.832092 L 154.034012 293.428314 L 150.642914 292.400391 L 147.568039 290.757446 L 145.002747 288.605103 L 142.973358 286.048462 L 141.321732 282.973816 L 140.302628 279.697052 L 139.889709 276.112488 L 140.302628 272.633545 L 141.321732 269.242554 L 142.973358 266.176483 L 145.002747 263.602142 L 147.568039 261.353271 L 150.642914 259.815979 L 154.034012 258.585907 L 157.609619 258.383759 L 157.723831 258.383759 L 161.299423 258.585907 L 164.479691 259.815979 L 167.545776 261.353271 L 170.225281 263.602142 L 172.263458 266.176483 L 173.994141 269.242554 L 174.828751 272.633545 L 175.338287 276.112488 L 174.828751 279.697052 Z M 216.725723 279.697052 L 215.803268 282.973816 L 214.063782 286.048462 L 212.025604 288.605103 L 209.469086 290.757446 L 206.596313 292.400391 L 203.310608 293.428314 L 199.83165 293.832092 L 196.247238 293.428314 L 192.970322 292.400391 L 189.886719 290.757446 L 187.3302 288.605103 L 185.1866 286.048462 L 183.649185 282.973816 L 182.621292 279.697052 L 182.41922 276.112488 L 182.621292 272.633545 L 183.649185 269.242554 L 185.1866 266.176483 L 187.3302 263.602142 L 189.886719 261.353271 L 192.970322 259.815979 L 196.247238 258.585907 L 199.83165 258.383759 L 203.310608 258.585907 L 206.596313 259.815979 L 209.469086 261.353271 L 212.025604 263.602142 L 214.063782 266.176483 L 215.803268 269.242554 L 216.725723 272.633545 L 217.138611 276.112488 L 216.725723 279.697052 Z M 126.878731 197.536713 L 141.321732 68.34967 L 142.244171 63.640686 L 143.781601 60.047546 L 145.731934 57.394348 L 147.884308 55.847931 L 149.729248 54.609283 L 151.064575 54.099884 L 152.285721 53.897736 L 157.609619 53.897736 L 178.096893 53.897736 L 199.822861 53.897736 L 216.523636 53.897736 L 218.561844 54.099884 L 220.714233 54.811432 L 222.866608 55.953552 L 225.019028 57.385254 L 226.758499 59.116119 L 228.190506 61.171967 L 229.209579 63.315735 L 229.613708 65.977478 L 229.613708 202.746552 L 228.700043 205.303192 L 227.786377 207.455536 L 226.345581 209.098511 L 225.027802 210.741455 L 223.077469 211.980103 L 220.925095 212.893799 L 215.996552 214.536194 L 199.814087 214.536194 L 178.096893 214.536194 L 157.609619 214.536194 L 142.973358 214.536194 L 139.880936 214.334595 L 136.806107 213.613922 L 133.740051 212.296448 L 131.060532 210.556976 L 129.022339 208.193359 L 127.581573 205.118744 L 126.6679 201.525604 L 126.878731 197.536713 Z"/>
        <path id="path1" fill="#000000" fill-rule="evenodd" stroke="none" d="M 208.221558 382.862335 L 355.234314 382.862335 L 355.234314 404.377258 L 208.221558 404.377258 Z"/>
        <path id="path2" fill="#000000" fill-rule="evenodd" stroke="none" d="M 441.90979 508.974731 L 421.106293 485.307495 L 465.366516 485.307495 L 442.832275 460.823059 L 399.599976 460.823059 L 387.616821 446.485321 L 364.977203 446.485321 L 373.577942 460.823059 L 281.262329 460.823059 L 189.271744 460.823059 L 197.977936 446.379669 L 175.944473 446.485321 L 163.557236 460.823059 L 116.028915 460.823059 L 92.862144 485.720367 L 141.94548 485.720367 L 121.651482 508.974731 L 73.701462 508.974731 L 41.846069 544.107239 L 91.228111 544.019348 L 78.304962 558.866455 L 129.733948 558.866455 L 138.756424 544.019348 L 281.262329 543.808594 L 423.566162 543.606445 L 433.396912 560 L 486.661987 560 L 472.219025 543.500793 L 517.700378 543.500793 L 484.922516 508.974731 L 441.90979 508.974731 Z M 281.262329 508.974731 L 159.972839 508.974731 L 174.117126 485.62384 L 281.262329 485.509644 L 388.41629 485.412598 L 402.666016 508.974731 L 281.262329 508.974731 Z"/>
        <path id="path3" fill="#000000" fill-rule="evenodd" stroke="none" d="M 177.077789 346.280457 L 197.257568 346.280457 L 197.257568 440.84491 L 177.077789 440.84491 Z"/>
        <path id="path4" fill="#000000" fill-rule="evenodd" stroke="none" d="M 364.56424 346.280457 L 384.735291 346.280457 L 384.735291 440.84491 L 364.56424 440.84491 Z"/>
    </g>
</svg>
