<?xml version="1.0" encoding="UTF-8"?>
<!-- Generated by Pixelmator Pro 3.6.12 -->
<svg width="1120" height="175" viewBox="0 0 1120 175" xmlns="http://www.w3.org/2000/svg">
    <g id="layer1">
        <g id="g2993">
            <g id="g2995">
                <path id="path2997" fill="#ffffff" stroke="none" d="M 136.865768 3.212769 L 263.571777 3.212769 C 319.852448 3.212769 336.353424 12.159729 323.144348 28.702271 C 312.534119 41.987595 288.534607 48.224823 261.62439 51.343452 L 261.409546 51.620659 C 286.982208 52.431503 306.851288 59.070694 293.427368 75.883514 C 287.363373 83.47216 276.884827 89.848 265.727081 93.521042 C 249.316238 98.933578 235.511154 101.102753 195.412643 101.102753 L 58.685455 101.102753 L 136.865768 3.212769 Z M 147.489868 79.376373 L 175.883163 79.376373 C 201.053879 79.376373 211.53244 76.881477 217.582565 69.299767 C 223.653458 61.704185 217.96373 57.934135 192.792999 57.934135 L 165.065018 58.058876 L 147.489868 79.376373 Z M 177.539474 41.64801 L 204.345764 41.64801 C 225.448395 41.64801 235.28244 37.268082 240.140564 31.204102 C 245.289749 24.745102 243.966064 22.340302 221.179382 22.340302 L 193.950363 22.111603 L 177.539474 41.64801"/>
            </g>
            <g id="g2999">
                <path id="path3001" fill="#ffffff" stroke="none" d="M 379.896271 3.212769 L 493.046722 3.212769 L 502.977753 68.842377 L 503.74704 68.842377 L 553.083557 3.212769 L 622.718872 3.212769 L 545.377136 101.102753 L 435.781952 101.102753 L 426.238953 31.412003 L 427.243866 31.412003 L 372.182892 101.102753 L 302.54068 101.102753 L 379.896271 3.212769"/>
            </g>
            <g id="g3003">
                <path id="path3005" fill="#ffffff" stroke="none" d="M 684.737793 69.646278 C 680.662842 75.072678 683.427979 78.468513 686.255554 81.053497 C 689.339539 83.624619 697.794434 85.516586 708.065063 85.516586 C 722.06427 85.516586 742.681763 83.569183 746.763672 78.454643 C 748.177429 76.694351 747.054749 72.369873 745.973694 71.136292 C 740.40863 64.899048 655.422791 60.290421 639.704956 48.765396 C 633.356812 44.156769 635.803223 37.240356 640.231628 31.682281 C 657.342468 10.260834 701.779358 -0.661255 776.050964 -0.661255 C 854.952087 -0.661255 870.170898 12.159729 855.083679 32.36145 L 781.013062 32.36145 C 784.824707 26.935059 782.898071 23.019455 778.864685 20.988892 C 775.094543 18.951401 767.457458 17.759384 757.678833 17.759384 C 741.226379 17.759384 728.627197 19.727585 724.62146 24.745102 C 723.436462 26.235107 723.457214 30.46257 724.898682 31.543686 C 732.106201 37.649246 814.493164 41.987595 829.850586 53.644295 C 834.327576 57.033195 837.563965 62.320992 829.9823 71.82238 C 814.500122 91.206337 772.946228 104.456993 688.390076 104.456993 C 587.630981 104.456993 594.651306 87.817429 607.604004 69.646278 L 684.737793 69.646278"/>
            </g>
            <g id="g3007">
                <path id="path3009" fill="#ffffff" stroke="none" d="M 921.274658 3.212769 L 1091.939331 3.212769 L 1073.255371 25.521286 L 983.085632 25.521286 L 966.709534 44.163696 L 1054.599121 44.163696 L 1037.897217 65.536636 L 950.00061 65.536636 L 920.713257 101.102753 L 843.094299 101.102753 L 921.274658 3.212769"/>
            </g>
            <g id="g3011">
                <path id="path3013" fill="#ffffff" stroke="none" d="M 997.715515 127.971382 L 2e-06 174.875412 L 42.780445 120.902512 L 1003.349854 120.902512 L 997.715515 127.971382"/>
            </g>
            <g id="g3015">
                <path id="path3017" fill="#ffffff" stroke="none" d="M 1109.958008 5.167099 C 1111.64209 5.167099 1113.284668 5.603714 1114.899292 6.470001 C 1116.500122 7.336273 1117.761597 8.576797 1118.648682 10.191544 C 1119.542603 11.799362 1120 13.483414 1120 15.236771 C 1120 16.969345 1119.549561 18.639542 1118.669312 20.233505 C 1117.789307 21.834396 1116.555664 23.074905 1114.96167 23.955048 C 1113.367798 24.842117 1111.690674 25.28566 1109.958008 25.28566 C 1108.218506 25.28566 1106.541382 24.842117 1104.954468 23.955048 C 1103.36731 23.074905 1102.126831 21.834396 1101.23291 20.233505 C 1100.345825 18.639542 1099.902222 16.969345 1099.902222 15.236771 C 1099.902222 13.483414 1100.352661 11.799362 1101.260498 10.191544 C 1102.154541 8.576797 1103.408936 7.336273 1105.023682 6.470001 C 1106.624512 5.603714 1108.260132 5.167099 1109.958008 5.167099 Z M 1109.958008 6.837296 C 1108.544312 6.837296 1107.172119 7.204605 1105.848389 7.925339 C 1104.510864 8.65303 1103.464355 9.685638 1102.702026 11.023178 C 1101.946655 12.381516 1101.57251 13.77449 1101.57251 15.236771 C 1101.57251 16.685196 1101.939697 18.078186 1102.681274 19.394928 C 1103.422729 20.72554 1104.46228 21.765076 1105.792969 22.506622 C 1107.116699 23.248154 1108.509644 23.615463 1109.958008 23.615463 C 1111.399536 23.615463 1112.799438 23.248154 1114.123169 22.506622 C 1115.446899 21.765076 1116.48645 20.72554 1117.227905 19.394928 C 1117.96936 18.078186 1118.33667 16.685196 1118.33667 15.236771 C 1118.33667 13.77449 1117.962524 12.381516 1117.207031 11.023178 C 1116.458618 9.685638 1115.412109 8.65303 1114.060791 7.925339 C 1112.737061 7.204605 1111.364868 6.837296 1109.958008 6.837296 Z M 1105.550415 20.794846 L 1105.550415 9.962845 L 1112.030151 10.260834 L 1113.402344 11.307312 L 1113.908325 12.894348 C 1113.908325 13.684387 1113.631104 14.370499 1113.055908 14.959564 C 1112.494507 15.54863 1111.725342 15.874359 1110.796631 15.943665 L 1114.635986 20.794846 L 1112.508301 20.794846 L 1109.708618 16.567383 L 1108.308594 16.193161 L 1107.289917 16.193161 L 1107.289917 20.794846 L 1105.550415 20.794846 Z M 1107.289917 14.70314 L 1111.510376 14.252686 L 1111.794556 12.187469 L 1107.289917 11.432053 L 1107.289917 14.70314"/>
            </g>
        </g>
    </g>
</svg>
