<svg class="information-line-svg" focusable="false" version="1.1" xmlns="http://www.w3.org/2000/svg" xmlns:xlink="http://www.w3.org/1999/xlink" aria-hidden="true" width="30"  height="30" ><defs><symbol id="icon-owl" viewBox="0 0 28 28">
            <title>Owl</title>
            <path fill="#231F20" d="M9.5,9.9L9.1,9.7L8.9,9.3L8.7,8.9L8.5,8.5L8.3,8L8.2,7.5L8.1,7.1V6.5V6l0.1-0.5L8.3,5l0.1-0.5l0.1-0.2L8.7,4
                l0.3-0.4l0.1-0.2l0.1-0.2L9.3,3l0.2-0.2V0.1l1.3,1.7l0.4-0.1l0.4-0.1L12,1.6l0.4-0.1h0.3h0.4h0.7h0.7l0.7,0.1l0.7,0.1l0.7,0.1
                L18,0.3l-0.1,2.5H18l0.2,0.3l0.2,0.3l0.1,0.3L18.7,4l0.1,0.3L19,4.5l0.1,0.3L19.1,5l0.1,0.3l0.1,0.3l0.1,0.5v0.5l-0.1,0.5l-0.1,0.5
                l-0.1,0.5l-0.2,0.5l-0.1,0.3l-0.2,0.4l-0.2,0.3l-0.2,0.3L18,10l0.2,1.1l0.2,1.1l0.1,1.1l0.1,1l0.1,1.1v1v1.1l-0.1,1l-0.1,1l-0.1,1
                l-0.2,0.9l-0.2,1l-0.2,0.9l-0.3,0.9l-0.3,0.9L16.9,26l-0.2,0.4l-0.1,0.3l-0.3,0.3l-0.1,0.1L16,27.3l-0.2,0.1l-0.1,0.1l-0.2,0.1
                l-0.1,0.1l-0.2,0.1l-0.3,0.1h-0.2l-0.3,0.1L14,27.8h-0.4l-0.2-0.1l-0.2-0.1L13,27.6l-0.2-0.1l-0.1-0.1l-0.2-0.1l-0.3-0.3L12,26.7
                l-0.1-0.2l-0.3-0.4l-0.3-0.5l-0.3-0.5l-0.4-1l-0.2-0.5l-0.2-0.5l-0.1-0.5L10,22.2l-0.3-1l-0.1-0.5l-0.1-0.5l-0.1-1l-0.1-1l-0.1-1
                v-1v-1v-1L9.3,12L9.5,9.9z M12.9,10.5l0.1-0.3L13,9.9l0.1-0.3l0.1-0.1l0.1-0.1l0.1-0.1l0.2-0.1l0.1-0.1L14,9.1l0.1,0.1l0.3,0.1
                l0.1,0.2l0.1,0.2l0.1,0.1l0.1,0.2l0.1,0.4l-0.1,0.3l-0.1,0.3l-0.1,0.3l-0.1,0.3l-0.3,0.5l-0.3,0.5l-0.1-0.2l-0.2-0.3l-0.2-0.5
                l-0.3-0.5L12.9,10.5z M18.3,7.8L18.3,7.8L18.3,8l0.1,0.1v0.1v0.1l-0.1,0.1v0.1l-0.1,0.1l-0.1,0.1l-0.1,0.1L18,9l-0.1,0.1l-0.1,0.1
                l-0.1,0.1h-0.1v0.1l-0.3,0.2l-0.2,0.1l-0.3,0.1l-0.3,0.1h-0.3H16l-0.3-0.1l-0.3-0.1l-0.2-0.1L15,9.3L14.8,9l-0.2-0.3l-0.1-0.3
                l-0.1-0.3l-0.1-0.3l-0.1-0.3V7.1V6.7l0.1-0.3L14.4,6l0.1-0.3l0.1-0.1l0.1-0.2L14.8,5L15,4.8l0.3-0.1l0.2-0.2l0.3-0.1L16,4.3
                l0.3-0.1l0.3,0.1l0.2,0.1l0.3,0.1l0.3,0.2l0.2,0.1L17.7,5l0.2,0.3l0.1,0.3L18.2,6l0.1,0.4v0.3v0.3v0.4L18.3,7.8L18.3,7.8L18.3,7.8
                L18.3,7.8L18.3,7.8l0.1-0.3V7.1V6.7V6.4L18.2,6l-0.1-0.3l-0.1-0.3L17.7,5l-0.2-0.3l-0.2-0.1l-0.3-0.2l-0.3-0.1l-0.2-0.1l-0.3-0.1
                L16,4.3l-0.3,0.1l-0.3,0.1l-0.2,0.2L15,4.8L14.8,5l-0.2,0.3l-0.1,0.2l-0.1,0.1L14.4,6l-0.1,0.4l-0.1,0.3v0.3v0.4l0.1,0.3l0.1,0.3
                l0.1,0.3l0.1,0.3L14.8,9L15,9.3l0.2,0.2l0.2,0.1l0.3,0.1L16,9.8h0.3h0.3l0.3-0.1l0.3-0.1l0.2-0.1l0.3-0.2V9.2h0.1l0.1-0.1l0.1-0.1
                L18,9l0.1-0.1l0.1-0.1l0.1-0.1l0.1-0.1V8.5l0.1-0.1V8.3V8.1L18.3,8L18.3,7.8L18.3,7.8z M13.4,7.8L13.4,7.8L13.4,8l0.1,0.1v0.1v0.1
                l-0.1,0.1l-0.1,0.2l-0.1,0.1l-0.1,0.1L13.1,9L13,9.1l-0.1,0.1l-0.1,0.1h-0.1v0.1l-0.3,0.2l-0.2,0.1l-0.3,0.1l-0.3,0.1h-0.3h-0.3
                l-0.3-0.1l-0.2-0.1l-0.3-0.1l-0.2-0.2L9.9,9L9.7,8.7L9.6,8.5L9.5,8.1L9.4,7.8L9.3,7.5V7.1V6.7l0.1-0.3L9.5,6l0.1-0.3l0.2-0.3L9.9,5
                l0.2-0.3l0.3-0.1l0.2-0.2l0.3-0.1l0.3-0.1l0.3-0.1l0.3,0.1l0.2,0.1l0.3,0.1l0.3,0.2l0.2,0.1L12.8,5l0.1,0.1L13,5.3l0.1,0.3L13.3,6
                l0.1,0.4l0.1,0.3v0.3v0.4L13.4,7.8L13.4,7.8L13.4,7.8l0.1-0.3V7.1V6.7l-0.1-0.3L13.3,6l-0.1-0.3L13,5.3l-0.1-0.1L12.8,5l-0.2-0.3
                l-0.2-0.1l-0.3-0.2l-0.3-0.1l-0.2-0.1l-0.3-0.1l-0.3,0.1l-0.3,0.1l-0.3,0.1l-0.2,0.2l-0.3,0.1L9.9,5L9.8,5.3L9.6,5.6L9.5,6L9.4,6.4
                L9.3,6.7v0.3v0.4l0.1,0.3l0.1,0.3l0.1,0.3l0.1,0.3L9.9,9l0.2,0.3l0.2,0.2l0.3,0.1l0.2,0.1l0.3,0.1h0.3h0.3l0.3-0.1l0.3-0.1l0.2-0.1
                l0.3-0.2V9.2h0.1l0.1-0.1L13,9.1L13.1,9l0.1-0.1l0.1-0.1l0.1-0.1l0.1-0.2l0.1-0.1V8.3V8.1L13.4,8L13.4,7.8L13.4,7.8z M9.7,23.6
                l-0.2-0.5l-0.1-0.4l-0.1-0.4l-0.1-0.5L8.9,21l-0.1-0.8l-0.1-0.8l-0.1-0.8v-0.8v-0.7v-0.8v-0.7L8.7,14v-1.6v-0.8v-0.8l-0.5-0.5
                L7.8,10L7.6,9.7L7.3,9.4L7.1,9.1L6.8,8.8L6.6,8.5L6.5,8.3L6.4,8.3L6.1,8.1H6L5.8,8H5.7L5.6,8.1H5.4L5.3,8.1L5.2,8.2L5.1,8.3L5,8.4
                L4.9,8.5L4.8,8.7L4.8,8.8l-0.9,3.1l-0.4,1.5L3.3,14L3,14.9l-0.5,1.5l-0.3,0.7l-0.3,0.7l-0.3,0.7l-0.3,0.7L0.9,20l-0.3,0.7l-0.2,0.6
                l-0.1,0.3L0.2,22v0.3l-0.1,0.3L0.2,23v0.3l0.1,0.3l0.1,0.3l0.2,0.3l0.1,0.1l0.1,0.1l0.3,0.3l0.1,0.1L1.5,25l0.4,0.3l0.5,0.1
                l0.5,0.1l0.5,0.1l0.5,0.1h0.5h0.4h0.5l0.4-0.1l0.5-0.1l0.4-0.1l0.4-0.1l0.3-0.1l0.4-0.1l0.7-0.3l0.3-0.2l0.3-0.2l0.2-0.1L9.5,24
                l0.1-0.3L9.7,23.6z M18.4,23.9l0.3-0.9l0.2-0.8l0.2-0.9l0.1-0.9l0.1-0.8l0.1-0.8l0.1-0.8v-0.8l-0.1-0.8v-0.8l-0.1-0.7L19.2,14
                L19,12.5l-0.1-1.5l0.5-0.5L20,9.9l0.3-0.3l0.3-0.3L20.7,9l0.2-0.3L21,8.6l0.1-0.1l0.1-0.1l0.1-0.1l0.2-0.1h0.1l0.1-0.1L22,8.3h0.1
                l0.1,0.1l0.1,0.1l0.1,0.1l0.1,0.1l0.1,0.1l0.1,0.1l0.1,0.1l0.9,3.1l0.5,1.5l0.2,0.6l0.3,0.9l0.5,1.5l0.3,0.7l0.3,0.7l0.3,0.7
                l0.3,0.7l0.4,0.7l0.3,0.7l0.3,0.6l0.1,0.3l0.1,0.3l0.1,0.3l0.1,0.3V23l-0.1,0.3l-0.1,0.3L27.6,24l-0.1,0.1l-0.1,0.1l-0.1,0.1
                l-0.1,0.1l-0.3,0.3l-0.1,0.1L26.5,25l-0.2,0.1l-0.2,0.1l-0.5,0.2l-0.5,0.1l-0.5,0.1l-0.5,0.1h-0.5h-0.4h-0.5l-0.4-0.1L22,25.6
                l-0.4-0.1l-0.4-0.1l-0.4-0.1l-0.4-0.1L20,25l-0.4-0.1l-0.3-0.2l-0.3-0.2l-0.2-0.1l-0.1-0.1L18.5,24L18.4,23.9L18.4,23.9z"></path>
            <polygon fill="#FFFFFF" points="11.4,9.8 11.1,9.8 10.8,9.7 10.6,9.6 10.3,9.5 10.1,9.3 9.9,9 9.7,8.7 9.6,8.5 9.5,8.1 9.4,7.8
                9.3,7.5 9.3,7.1 9.3,6.7 9.4,6.4 9.5,6 9.6,5.6 9.8,5.3 9.9,5 10.1,4.8 10.4,4.6 10.6,4.4 10.9,4.4 11.1,4.3 11.4,4.2 11.7,4.3
                11.9,4.4 12.2,4.4 12.4,4.6 12.6,4.8 12.8,5 12.9,5.2 13,5.3 13.2,5.6 13.3,6 13.4,6.4 13.4,6.7 13.4,7.1 13.4,7.5 13.4,7.8
                13.3,8.1 13.2,8.5 13,8.7 12.8,9 12.7,9.3 12.4,9.5 12.2,9.6 11.9,9.7 11.7,9.8    "></polygon>
            <polygon fill="#231F20" points="12.5,9.3 12.4,9.2 12.2,9.2 12.1,9.1 11.9,9.1 11.8,9 11.7,8.9 11.7,8.9 11.6,8.7 11.5,8.6 11.5,8.5
                11.5,8.4 11.5,8.3 11.5,8.1 11.5,8 11.5,7.9 11.6,7.7 11.7,7.6 11.7,7.5 11.9,7.5 11.9,7.3 12.1,7.3 12.2,7.3 12.4,7.3 12.5,7.3
                12.6,7.3 12.7,7.3 12.8,7.3 13,7.3 13.1,7.5 13.2,7.5 13.3,7.6 13.4,7.7 13.4,7.9 13.4,8 13.5,8.1 13.5,8.3 13.5,8.4 13.4,8.5
                13.4,8.7 13.3,8.9 13.2,8.9 13.1,9 13,9.1 12.9,9.1 12.8,9.2 12.6,9.2     "></polygon>
            <polygon fill="#25282B" points="12.5,9.3 12.4,9.2 12.2,9.2 12.1,9.1 11.9,9.1 11.8,9 11.7,8.9 11.7,8.9 11.6,8.7 11.5,8.6 11.5,8.5
                11.5,8.4 11.5,8.3 11.5,8.1 11.5,8 11.5,7.9 11.6,7.7 11.7,7.6 11.7,7.5 11.9,7.5 11.9,7.3 12.1,7.3 12.2,7.3 12.4,7.3 12.5,7.3
                12.6,7.3 12.7,7.3 12.8,7.3 13,7.3 13.1,7.5 13.2,7.5 13.3,7.6 13.4,7.7 13.4,7.9 13.4,8 13.5,8.1 13.5,8.3 13.5,8.4 13.4,8.5
                13.4,8.7 13.3,8.9 13.2,8.9 13.1,9 13,9.1 12.9,9.1 12.8,9.2 12.6,9.2     "></polygon>
            <polygon fill="#FFFFFF" points="16.3,9.8 16,9.8 15.7,9.7 15.4,9.6 15.2,9.5 15,9.3 14.8,9 14.6,8.7 14.5,8.5 14.4,8.1 14.3,7.8
                14.2,7.5 14.2,7.1 14.2,6.7 14.3,6.4 14.4,6 14.5,5.6 14.6,5.5 14.6,5.3 14.8,5 15,4.8 15.3,4.6 15.5,4.4 15.8,4.4 16,4.3
                16.3,4.2 16.6,4.3 16.8,4.4 17.1,4.4 17.3,4.6 17.5,4.8 17.7,5 17.9,5.3 18.1,5.6 18.2,6 18.3,6.4 18.3,6.7 18.3,7.1 18.3,7.5
                18.3,7.8 18.2,8.1 18.1,8.5 17.9,8.7 17.8,9 17.6,9.3 17.3,9.5 17.1,9.6 16.9,9.7 16.6,9.8     "></polygon>
            <polygon fill="#231F20" points="17.4,9.3 17.3,9.2 17.1,9.2 17,9.1 16.9,9.1 16.7,9 16.7,8.9 16.6,8.9 16.5,8.7 16.5,8.6 16.4,8.5
                16.4,8.4 16.4,8.3 16.4,8.1 16.4,8 16.5,7.9 16.5,7.7 16.6,7.6 16.7,7.5 16.8,7.5 16.9,7.3 17,7.3 17.1,7.3 17.3,7.3 17.4,7.3
                17.5,7.3 17.7,7.3 17.7,7.3 17.9,7.3 18,7.5 18.1,7.5 18.2,7.6 18.3,7.7 18.3,7.9 18.3,8 18.4,8.1 18.4,8.3 18.4,8.4 18.3,8.5
                18.3,8.6 18.3,8.7 18.2,8.9 18.1,8.9 18,9 17.9,9.1 17.8,9.1 17.7,9.2 17.5,9.2    "></polygon>
            <polygon fill="#25282B" points="17.4,9.3 17.3,9.2 17.1,9.2 17,9.1 16.9,9.1 16.7,9 16.7,8.9 16.6,8.9 16.5,8.7 16.5,8.6 16.4,8.5
                16.4,8.4 16.4,8.3 16.4,8.1 16.4,8 16.5,7.9 16.5,7.7 16.6,7.6 16.7,7.5 16.8,7.5 16.9,7.3 17,7.3 17.1,7.3 17.3,7.3 17.4,7.3
                17.5,7.3 17.7,7.3 17.7,7.3 17.9,7.3 18,7.5 18.1,7.5 18.2,7.6 18.3,7.7 18.3,7.9 18.3,8 18.4,8.1 18.4,8.3 18.4,8.4 18.3,8.5
                18.3,8.6 18.3,8.7 18.2,8.9 18.1,8.9 18,9 17.9,9.1 17.8,9.1 17.7,9.2 17.5,9.2    "></polygon>
            <polygon fill="#FFFFFF" points="12.9,10.5 13,10.1 13,9.9 13.1,9.6 13.2,9.5 13.4,9.3 13.5,9.2 13.7,9.1 13.8,9.1 14,9.1 14.2,9.2
                14.4,9.3 14.6,9.5 14.7,9.7 14.8,9.9 14.8,10.1 14.9,10.5 14.8,10.8 14.8,11.1 14.6,11.3 14.5,11.6 14.2,12.1 13.9,12.6 13.8,12.4
                13.6,12.1 13.4,11.6 13.1,11.1   "></polygon>
        </symbol></defs>
                            <use xlink:href="#icon-owl"></use>
                        </svg>