<?xml version="1.0" encoding="UTF-8"?>
<!-- Generated by Pixelmator Pro 3.6.12 -->
<svg width="500" height="137" viewBox="0 0 500 137" xmlns="http://www.w3.org/2000/svg">
    <g id="Group">
        <path id="inline" fill="none" stroke="#ffffff" stroke-width="5" d="M 45.028141 13.152908 L 454.971863 13.152908 L 454.971863 47.862099 L 486.866791 24.409943 L 486.866791 112.590057 L 454.971863 89.137894 L 454.971863 123.847092 L 45.028141 123.847092 L 45.028141 89.137894 L 13.133208 112.590057 L 13.133208 24.409943 L 45.028141 47.862099 Z"/>
        <path id="SOUTH-SHORE-LINE" fill="none" stroke="#ffffff" stroke-width="9.380863" d="M 87.242027 38.481239 L 87.242027 30.03846 L 81.61351 24.409943 L 69.418388 24.409943 L 63.789867 30.03846 L 63.789867 50.676361 L 69.418388 56.304878 L 81.61351 56.304878 L 87.242027 61.933395 L 87.242027 92.890244 L 81.61351 98.518761 L 69.418388 98.518761 L 63.789867 92.890244 L 63.789867 80.695122 M 103.189491 30.03846 L 108.818008 24.409943 L 120.07505 24.409943 L 125.703568 30.03846 L 125.703568 79.757034 L 120.07505 85.385559 L 108.818008 85.385559 L 103.189491 79.757034 Z M 139.774857 19.719513 L 139.774857 71.314262 L 145.403381 76.94278 L 154.784241 76.94278 L 160.412766 71.314262 L 160.412766 19.719513 M 168.85553 24.409943 L 195.121948 24.409943 M 181.988739 24.409943 L 181.988739 76.004692 M 206.378983 19.719513 L 206.378983 73.19043 M 225.140717 19.719513 L 225.140717 72.252342 M 206.378983 45.985931 L 225.140717 45.985931 M 288.930573 35.666977 L 288.930573 30.03846 L 283.302063 24.409943 L 273.921204 24.409943 L 268.292694 30.03846 L 268.292694 40.357414 L 273.921204 47.862099 L 283.302063 47.862099 L 288.930573 53.490616 L 288.930573 65.685738 L 283.302063 71.314262 L 273.921204 71.314262 L 268.292694 65.685738 L 268.292694 59.119141 M 303.939972 19.719513 L 303.939972 78.818954 M 320.825531 19.719513 L 320.825531 80.695122 M 303.939972 47.862099 L 320.825531 47.862099 M 337.71106 30.03846 L 343.3396 24.409943 L 356.472809 24.409943 L 362.101318 30.03846 L 362.101318 75.066605 L 356.472809 80.695122 L 343.3396 80.695122 L 337.71106 75.066605 Z M 377.110687 91.952156 L 377.110687 24.409943 L 393.996246 24.409943 L 399.624756 30.03846 L 399.624756 51.614449 L 393.996246 57.242966 L 377.110687 57.242966 M 399.624756 99.456848 L 393.058167 57.242966 M 442.776733 24.409943 L 417.448395 24.409943 L 417.448395 105.085365 L 442.776733 105.085365 M 439.962463 59.119141 L 417.448395 59.119141 M 174.484055 83.509384 L 174.484055 112.590057 L 206.378983 112.590057 M 216.697937 79.757034 L 216.697937 117.280487 M 236.397751 117.280487 L 236.397751 83.509384 L 239.212006 83.509384 L 263.602264 112.590057 L 264.540344 112.590057 L 264.540344 79.757034 M 315.196991 89.137894 L 285.178223 89.137894 L 285.178223 112.590057 L 316.135071 112.590057"/>
        <path id="Path" fill="none" stroke="#ffffff" stroke-width="5.628518" d="M 305.816132 99.456848 L 285.178223 99.456848"/>
    </g>
</svg>
