<?xml version="1.0" encoding="UTF-8"?>
<!-- Generated by Pixelmator Pro 3.6.12 -->
<svg width="654" height="221" viewBox="0 0 654 221" xmlns="http://www.w3.org/2000/svg">
    <g id="svg">
        <path id="path97" fill="#ffffff" fill-rule="evenodd" stroke="none" d="M 350.548889 9.63562 C 309.464874 7.709122 95.264969 2.264679 -0.106275 43.558807 C 25.696909 58.803299 53.309662 74.578278 85.814972 91.721329 C 180.247894 47.523483 302.89682 31.525162 415.559509 25.38269 L 415.559509 22.53479 C 393.710602 19.826553 369.448883 15.163849 350.548889 9.63562 Z M 446.858459 26.974152 C 362.277649 35.406082 212.552155 59.920105 127.2341 113.052467 C 158.264938 128.631989 190.703247 144.127747 223.074493 158.534653 C 312.949982 81.977142 431.71167 47.998154 552.819092 24.182098 L 552.819092 21.390076 C 522.056274 25.01973 475.543549 27.225418 446.858459 26.974152 Z M 267.710663 177.715897 C 308.660614 194.635605 350.95105 210.215134 387.008484 220.601501 C 430.438232 134.271896 508.987152 65.783371 653.753052 3.046417 L 653.753052 0.198563 C 467.83609 51.041458 351.487213 87.449539 267.710663 177.715897"/>
    </g>
</svg>
